<svg xmlns="http://www.w3.org/2000/svg" width="24" height="24"><style>.B{fill:rgb(32.54902%,40.392157%,98.823529%)}.C{fill:rgb(0%,85.098039%,64.313725%)}</style><path d="M.031 12v.031c0 1.113.156 2.219.457 3.289l.02-.008A12.04 12.04 0 0 1 .031 12zm0 0" class="B"/><path d="M23.965 12l-.051 1.082.008-.008.047-1.039c0-.012-.004-.023-.004-.035zm0 0" class="C"/><path d="M12 0C5.391 0 .031 5.359.031 11.969V12a12.04 12.04 0 0 0 .477 3.313l6.289-4.039 7.23 2.715 8.305-7.996.023-.023C20.215 2.273 16.27 0 12 0zm0 0" class="B"/><path d="M22.355 5.965l-.023.023-8.305 8-7.23-2.715-6.289 4.039-.02.008c.215.738.496 1.457.848 2.141l.023-.016 6.02-3.863 7.227 2.711 8.656-8.336.016-.016a11.96 11.96 0 0 0-.922-1.977zm0 0" fill="rgb(0%,100%,76.470588%)"/><path d="M23.273 7.945l-.016.016-8.656 8.336-7.227-2.715-6.02 3.863-.023.016A11.95 11.95 0 0 0 2.648 19.5l.035-.023 4.688-3.012 7.227 2.715 9.242-8.895.008-.008a11.9 11.9 0 0 0-.574-2.332zm0 0" fill="rgb(0%,92.156863%,69.803922%)"/><path d="M23.848 10.277l-.008.008-9.238 8.895-7.227-2.715-4.691 3.012-.031.023a12.15 12.15 0 0 0 1.734 1.766l.047-.031 2.938-1.887 7.227 2.707 9.316-8.973A10.97 10.97 0 0 0 23.965 12v-.031c0-.566-.039-1.133-.117-1.691zm0 0" class="C"/><path d="M23.914 13.082l-9.316 8.973-7.227-2.707-2.941 1.887-.047.031c3.43 2.824 8.145 3.52 12.242 1.805a11.98 11.98 0 0 0 7.297-9.996zm0 0" fill="rgb(0.392157%,78.431373%,59.215686%)"/></svg>